HIERARCHY
ROOT root
{
	OFFSET 0.000000 0.000000 0.000000
	CHANNELS 6 Xposition Yposition Zposition Zrotation Yrotation Xrotation
	JOINT lhip
	{
		OFFSET 0.058581 -0.082280 -0.017664
		CHANNELS 3 Zrotation Yrotation Xrotation
		JOINT lknee
		{
			OFFSET 0.043451 -0.386469 0.008037
			CHANNELS 3 Zrotation Yrotation Xrotation
			JOINT lankle
			{
				OFFSET -0.014790 -0.426874 -0.037428
				CHANNELS 3 Zrotation Yrotation Xrotation
				JOINT ltoe
				{
					OFFSET 0.041054 -0.060286 0.122042
					CHANNELS 3 Zrotation Yrotation Xrotation
					End Site
					{
						OFFSET 0.000000 0.000000 0.000000
					}
				}
			}
		}
	}
	JOINT rhip
	{
		OFFSET -0.060310 -0.090513 -0.013543
		CHANNELS 3 Zrotation Yrotation Xrotation
		JOINT rknee
		{
			OFFSET -0.043257 -0.383688 -0.004843
			CHANNELS 3 Zrotation Yrotation Xrotation
			JOINT rankle
			{
				OFFSET 0.019056 -0.420046 -0.034562
				CHANNELS 3 Zrotation Yrotation Xrotation
				JOINT rtoe
				{
					OFFSET -0.034840 -0.062106 0.130323
					CHANNELS 3 Zrotation Yrotation Xrotation
					End Site
					{
						OFFSET 0.000000 0.000000 0.000000
					}
				}
			}
		}
	}
	JOINT lowerback
	{
		OFFSET 0.004439 0.124404 -0.038385
		CHANNELS 3 Zrotation Yrotation Xrotation
		JOINT upperback
		{
			OFFSET 0.004488 0.137956 0.026820
			CHANNELS 3 Zrotation Yrotation Xrotation
			JOINT chest
			{
				OFFSET -0.002265 0.056032 0.002855
				CHANNELS 3 Zrotation Yrotation Xrotation
				JOINT lowerneck
				{
					OFFSET -0.013390 0.211636 -0.033468
					CHANNELS 3 Zrotation Yrotation Xrotation
					JOINT upperneck
					{
						OFFSET 0.010113 0.088937 0.050410
						CHANNELS 3 Zrotation Yrotation Xrotation
						End Site
						{
							OFFSET 0.000000 0.000000 0.000000
						}
					}
				}
				JOINT lclavicle
				{
					OFFSET 0.071702 0.114000 -0.018898
					CHANNELS 3 Zrotation Yrotation Xrotation
					JOINT lshoulder
					{
						OFFSET 0.122921 0.045205 -0.019046
						CHANNELS 3 Zrotation Yrotation Xrotation
						JOINT lelbow
						{
							OFFSET 0.255332 -0.015649 -0.022946
							CHANNELS 3 Zrotation Yrotation Xrotation
							JOINT lwrist
							{
								OFFSET 0.265709 0.012698 -0.007375
								CHANNELS 3 Zrotation Yrotation Xrotation
								End Site
								{
									OFFSET 0.000000 0.000000 0.000000
								}
							}
						}
					}
				}
				JOINT rclavicle
				{
					OFFSET -0.082954 0.112472 -0.023707
					CHANNELS 3 Zrotation Yrotation Xrotation
					JOINT rshoulder
					{
						OFFSET -0.113228 0.046853 -0.008472
						CHANNELS 3 Zrotation Yrotation Xrotation
						JOINT relbow
						{
							OFFSET -0.260127 -0.014369 -0.031269
							CHANNELS 3 Zrotation Yrotation Xrotation
							JOINT rwrist
							{
								OFFSET -0.269108 0.006794 -0.006027
								CHANNELS 3 Zrotation Yrotation Xrotation
								End Site
								{
									OFFSET 0.000000 0.000000 0.000000
								}
							}
						}
					}
				}
			}
		}
	}
}
MOTION
Frames: 10
Frame Time: 0.033333
-0.073549 -0.962308 0.847284 -90.721430 0.695845 95.338779 19.870939 13.116704 -38.768031 -6.728957 9.404428 53.654510 -2.147976 1.694640 -20.546434 0.000000 -0.000000 0.000000 -23.686122 -16.881581 -36.737359 1.788373 -8.247200 50.652427 9.649620 -3.455108 -13.205877 0.000000 -0.000000 0.000000 4.265995 1.851873 36.234143 0.020682 -2.277790 -2.944707 0.886863 -3.645526 -1.845480 -4.650156 -0.553679 -21.410658 -0.643852 1.732066 -4.992972 -34.732906 -15.494913 4.526094 -30.669316 -19.845996 -0.123581 30.704138 -62.072746 -32.279645 23.425754 -15.418410 -19.486127 31.514139 20.458650 5.919384 31.827893 21.610335 1.691413 -38.078809 44.917743 -54.085361 -25.613105 23.200913 -14.757727 
-0.073763 -0.962095 0.847462 -90.721255 0.690780 95.346361 19.872038 13.119725 -38.779721 -6.727685 9.407306 53.657995 -2.146818 1.694047 -20.546899 0.000000 -0.000000 0.000000 -23.683196 -16.883397 -36.751777 1.787500 -8.251421 50.658340 9.646930 -3.455058 -13.207856 0.000000 -0.000000 0.000000 4.266168 1.848719 36.212606 0.024619 -2.272035 -2.946064 0.888948 -3.640285 -1.845156 -4.649624 -0.552875 -21.406434 -0.642483 1.732053 -4.997302 -34.730152 -15.493306 4.528987 -30.669938 -19.846813 -0.126200 30.707254 -62.074576 -32.278319 23.428353 -15.417136 -19.492089 31.509481 20.458187 5.921181 31.821180 21.617254 1.683674 -38.080297 44.923399 -54.076044 -25.616973 23.198335 -14.768926 
-0.073764 -0.962093 0.847460 -90.721247 0.690959 95.347540 19.872186 13.120064 -38.781088 -6.727714 9.407636 53.658385 -2.146718 1.693940 -20.546890 0.000000 -0.000000 0.000000 -23.682839 -16.883531 -36.753301 1.787529 -8.251809 50.658840 9.646748 -3.455151 -13.207861 0.000000 -0.000000 0.000000 4.265947 1.848284 36.210474 0.024880 -2.271631 -2.945745 0.888912 -3.639958 -1.844684 -4.649651 -0.552760 -21.406238 -0.642345 1.732028 -4.997674 -34.730094 -15.493084 4.529284 -30.669870 -19.846724 -0.126533 30.707134 -62.074828 -32.277866 23.428146 -15.416986 -19.492757 31.509558 20.457859 5.921754 31.820314 21.617743 1.682837 -38.080100 44.924339 -54.074648 -25.616804 23.197822 -14.770471 
-0.074701 -0.961776 0.847992 -92.182685 0.054695 97.023191 19.026153 14.525662 -39.212044 -7.097219 9.856565 53.297238 -1.941706 1.628946 -21.269679 0.000000 -0.000000 0.000000 -23.164005 -16.460888 -40.025928 0.536168 -8.513305 52.706986 9.015765 -2.355236 -14.520766 0.000000 -0.000000 0.000000 1.168436 1.480488 34.318302 -0.005296 -0.825375 -3.410807 1.579642 -2.728288 -0.923383 -4.512386 0.671132 -22.465826 0.357662 0.808130 -4.813828 -32.934951 -15.308510 4.646026 -31.637665 -18.992948 0.088446 32.190305 -63.116317 -31.397643 25.879044 -14.003441 -22.956219 31.768517 20.351494 6.403009 32.129406 21.860418 1.377246 -38.783489 46.923049 -51.293852 -27.542691 22.191991 -19.098455 
-0.074528 -0.962038 0.848326 -92.256620 -0.009143 97.262697 18.873146 14.488345 -39.360920 -7.006986 9.948324 53.342094 -1.825003 1.591646 -21.416546 0.000000 -0.000000 0.000000 -23.141252 -16.409377 -40.355176 0.353946 -8.634166 52.902190 8.974258 -2.214170 -14.689939 0.000000 -0.000000 0.000000 0.988404 1.464417 34.230979 0.023183 -0.820102 -3.570711 1.571777 -2.660930 -0.915328 -4.401572 0.775219 -22.688537 0.375505 0.562544 -4.438946 -32.589805 -15.243401 4.729919 -31.964095 -18.985109 0.328455 32.568344 -63.091191 -31.307372 26.409972 -13.879633 -23.257465 31.710501 20.261444 6.535425 32.365445 21.892021 1.616617 -39.045751 47.100439 -51.096208 -28.297738 22.196735 -19.849827 
-0.074293 -0.962016 0.848494 -92.349809 -0.008953 97.592224 18.803418 14.418978 -39.586244 -6.833761 10.109163 53.488394 -1.723931 1.436019 -21.686975 0.000000 -0.000000 0.000000 -23.093667 -16.368225 -40.773178 0.147785 -9.057463 53.219776 8.904197 -1.927135 -14.990516 0.000000 -0.000000 0.000000 0.794200 1.473747 34.084302 0.108436 -0.826998 -3.665725 1.686116 -2.568848 -1.068457 -4.228079 0.782199 -22.451720 0.360779 0.746064 -4.675342 -32.389602 -15.239376 5.020178 -32.278617 -18.746735 0.421533 32.854543 -63.079231 -31.090107 26.172889 -14.063793 -23.663481 31.774452 20.166584 6.952044 32.246519 21.620991 1.656937 -39.400719 47.726177 -50.921161 -28.640359 22.126937 -20.532297 
-0.074087 -0.961738 0.848495 -92.394634 -0.031363 97.792844 18.754333 14.347614 -39.750915 -6.720762 10.217801 53.619292 -1.670220 1.347754 -21.846641 0.000000 -0.000000 0.000000 -23.097073 -16.498146 -41.079567 0.139183 -9.233706 53.492837 8.811169 -1.720451 -15.137266 0.000000 -0.000000 0.000000 0.730274 1.472000 34.100677 0.168028 -0.860256 -3.719624 1.783735 -2.584687 -1.179426 -4.184721 0.598432 -22.486293 0.270247 0.893701 -4.610635 -32.494513 -15.193178 5.289972 -32.302775 -18.380811 0.283604 33.224033 -63.423563 -31.479780 25.125747 -14.156004 -23.739398 32.004884 20.090177 7.241462 31.659280 21.177873 1.388920 -39.343558 48.497481 -50.644876 -27.958189 21.806474 -20.921442 
-0.074144 -0.961349 0.848049 -92.506700 0.029797 97.966402 18.915292 14.314398 -39.795180 -6.971900 10.264063 53.583536 -1.492248 1.649523 -21.981623 0.000000 -0.000000 0.000000 -23.003623 -16.479133 -41.261631 0.414251 -9.127525 53.454499 8.585337 -1.949401 -15.258904 0.000000 -0.000000 0.000000 0.673736 1.487922 34.014167 0.309616 -0.826555 -3.601100 1.729845 -2.513349 -1.238199 -4.111750 0.667101 -22.627458 0.192269 0.719834 -4.255515 -32.477134 -15.244535 5.559214 -32.593964 -18.132284 0.428760 33.877477 -63.534598 -31.036385 24.552184 -13.648525 -24.606217 32.117508 19.905919 7.374605 30.953972 20.476109 1.130959 -40.112950 48.972224 -48.734930 -23.390778 20.320918 -22.401302 
-0.074245 -0.960645 0.847703 -92.666188 0.093729 98.018066 19.041628 14.373547 -39.733992 -6.897270 10.349607 53.672658 -1.404247 1.560080 -22.122985 0.000000 -0.000000 0.000000 -22.851575 -16.463959 -41.397719 0.296965 -9.209431 53.597656 8.398747 -1.844536 -15.407795 0.000000 -0.000000 0.000000 0.647229 1.343452 34.143267 0.223967 -0.838176 -3.604468 1.673843 -2.479436 -1.261266 -4.226469 0.543093 -22.789847 0.487940 0.439877 -3.616647 -32.296535 -15.131223 5.496499 -32.709709 -17.860057 0.505887 33.249674 -63.868130 -30.929183 24.700205 -13.564683 -24.503282 31.981914 20.051290 7.413233 31.909314 20.349154 1.489392 -40.402846 49.109462 -49.853188 -24.627640 21.022381 -21.885369 
-0.074390 -0.960537 0.847375 -92.783497 -0.113967 98.053012 18.828657 14.236112 -39.712698 -6.823370 10.433538 53.726871 -1.284336 1.686498 -22.279190 0.000000 -0.000000 0.000000 -23.072931 -16.536903 -41.411850 0.307869 -9.184269 53.557112 8.630615 -1.750808 -15.429769 0.000000 -0.000000 0.000000 0.499487 1.411991 34.336768 0.121145 -0.934961 -3.757790 1.685749 -2.574134 -1.135911 -4.289959 0.206322 -22.643404 0.599079 0.759139 -3.893806 -32.218715 -15.142151 5.491018 -32.621274 -17.581940 0.900011 32.024766 -64.266330 -30.701428 24.954926 -13.712965 -24.448553 31.736459 20.127118 7.113747 32.736261 19.922171 2.078610 -40.554449 49.228176 -51.510558 -24.253085 21.810498 -20.757418 
